<svg xmlns="http://www.w3.org/2000/svg" viewBox="0 0 402.00 402.00" data-guides="{&quot;vertical&quot;:[],&quot;horizontal&quot;:[]}"><defs/><path fill="#5787d9" fill-opacity="1" stroke="" stroke-opacity="0" stroke-width="1" id="tSvg183fef297af" title="Rectangle 1" d="M1 101C1 45.7715 45.7715 1 101 1H301C356.2285 1 401 45.7715 401 101V301C401 356.2285 356.2285 401 301 401H101C45.7715 401 1 356.2285 1 301Z" style="transform-origin: 201px 201px;"/><path fill="#ffffff" fill-opacity="1" stroke="" stroke-opacity="0" stroke-width="1" id="tSvg426392c585" title="Ellipse 1" d="M201 74C251.8102 74 293 115.1898 293 166C293 216.8102 251.8102 258 201 258C150.1898 258 109 216.8102 109 166C109 115.1898 150.1898 74 201 74Z" style="transform-origin: 201px 166px;"/><path fill="#ffffff" fill-opacity="1" stroke="" stroke-opacity="0" stroke-width="1" id="tSvg127cfe710dd" title="Rectangle 2" d="M165.5 204H236.5V275H165.5Z" style="transform-origin: 201px 239.5px;"/><path fill="#ffffff" fill-opacity="1" stroke="none" stroke-opacity="1" stroke-width="1" id="tSvge368291bba" rx="0" ry="0" title="Rectangle 3" d="M165.5 327.9685H236.5V347.9685H165.5Z" style="transform-origin: 201px 337.97px;"/><path fill="#ffffff" fill-opacity="1" stroke="" stroke-opacity="0" stroke-width="1" id="tSvg711e503879" title="Ellipse 2" d="M201 265.0196C220.6061 265.0196 236.5 269.7162 236.5 275.5098C236.5 281.3034 220.6061 286 201 286C181.3939 286 165.5 281.3034 165.5 275.5098C165.5 269.7162 181.3939 265.0196 201 265.0196Z" style="transform-origin: 201px 275.51px;"/><path fill="#ffffff" fill-opacity="1" stroke="none" stroke-opacity="1" stroke-width="1" id="tSvg53f4ef8b26" title="Ellipse 3" d="M201 338C220.6061 338 236.5 342.6966 236.5 348.4902C236.5 354.2838 220.6061 358.9804 201 358.9804C181.3939 358.9804 165.5 354.2838 165.5 348.4902C165.5 342.6966 181.3939 338 201 338Z" style="transform-origin: 201px 348.49px;"/><path fill="#ffffff" fill-opacity="1" stroke="none" stroke-opacity="1" stroke-width="1" id="tSvg73a1698702" title="Ellipse 4" d="M201 317.0196C220.6061 317.0196 236.5 321.7162 236.5 327.5098C236.5 333.3034 220.6061 338 201 338C181.3939 338 165.5 333.3034 165.5 327.5098C165.5 321.7162 181.3939 317.0196 201 317.0196Z" style="transform-origin: 201px 327.51px;"/></svg>