<svg xmlns="http://www.w3.org/2000/svg" viewBox="0 0 402.00 402.00" data-guides="{&quot;vertical&quot;:[],&quot;horizontal&quot;:[]}"><defs/><path fill="#5787d9" stroke="none" fill-opacity="1" stroke-width="1" stroke-opacity="1" title="Rectangle 1" d="M0.9967 101.0049C0.9967 45.7764 45.7682 1.0049 100.9967 1.0049H300.9967C356.2252 1.0049 400.9967 45.7764 400.9967 101.0049V301.0049C400.9967 356.2334 356.2252 401.0049 300.9967 401.0049H100.9967C45.7682 401.0049 0.9967 356.2334 0.9967 301.0049Z" id="tSvg199d3fbb214"/><path fill="#ffffff" fill-opacity="1" stroke="" stroke-opacity="0" stroke-width="1" id="tSvg426392c585" title="Ellipse 1" d="M194.056 92.9961C246.3619 92.9961 288.7641 134.8691 288.7641 186.5222C288.7641 238.1752 246.3619 280.0483 194.056 280.0483C141.7502 280.0483 99.348 238.1752 99.348 186.5222C99.348 134.8691 141.7502 92.9961 194.056 92.9961Z" style="transform-origin: 194.06px 186.52px;"/><path fill="#ffffff" fill-opacity="1" stroke="" stroke-opacity="0" stroke-width="1" id="tSvg217701c470" title="Rectangle 6" d="M138.7264 195.354C138.7264 178.7855 152.1579 165.354 168.7264 165.354H259.7641C276.3326 165.354 289.7641 178.7855 289.7641 195.354V284.0048C289.7641 300.5733 276.3326 314.0048 259.7641 314.0048H168.7264C152.1579 314.0048 138.7264 300.5733 138.7264 284.0048Z" style="transform-origin: 214.25px 239.68px;"/><path fill="#ffffff" fill-opacity="1" stroke="" stroke-opacity="0" stroke-width="1" id="tSvgff3d3c557a" title="Rectangle 7" d="M247.3625 218.6509L288.4766 196.1824L317.1113 248.5798L275.9972 271.0483Z" style="transform-origin: 282.24px 233.62px;"/></svg>